<svg width="53" height="312" viewBox="0 0 53 312" fill="none" xmlns="http://www.w3.org/2000/svg">
<circle cx="14" cy="46" r="4" fill="#FF2550"/>
<path d="M17.9761 1.22949C18.296 2.82913 20.0976 3.4076 21.1736 4.42699C22.8073 5.97478 21.6578 5.38575 20.2498 6.02573C15.5472 8.16329 21.1736 2.99291 21.1736 1.22949" stroke="#FFDD56" stroke-width="2" stroke-linecap="round"/>
<path d="M33.324 186.685C34.13 187.535 37.0899 190.151 37.0899 191.445C37.0899 192.088 33.8158 191.945 33.4661 191.658C32.6432 190.985 35.9864 188.231 36.5215 187.964" stroke="#FFDD56" stroke-width="2" stroke-linecap="round"/>
<path d="M47.393 306.91C48.1872 306.91 51.4346 308.095 51.1234 309.184C50.8738 310.057 48.6331 310.676 47.8549 310.676C47.5016 310.676 47.7491 309.273 47.7483 309.255C47.6559 307.223 46.899 306.079 46.114 304.352" stroke="#FFDD56" stroke-width="2" stroke-linecap="round"/>
<path d="M13.1959 135.616L8.15591 144.238L3.31315 137.059L13.1959 135.616Z" fill="#FFDD56"/>
<path d="M16 232L20.3301 234.5V239.5L16 242L11.6699 239.5V234.5L16 232Z" fill="#FF2550"/>
</svg>
