<svg width="74" height="609" viewBox="0 0 74 609" fill="none" xmlns="http://www.w3.org/2000/svg">
<path d="M53.6416 607.07C56.398 607.07 63.7938 607.587 63.7938 603.245C63.7938 602.232 63.8884 601.331 62.7715 600.972C59.9709 600.071 61.5036 605.287 63.3003 605.766C65.9818 606.481 67.2356 604.02 68.7994 602.382C70.2807 600.83 71.0724 599.511 71.7252 597.552" stroke="#493DAF" stroke-width="2" stroke-linecap="round"/>
<path d="M53.2253 123.83C56.9662 123.83 60.9439 120.715 60.9439 116.699C60.9439 115.382 59.0752 114.004 58.3075 115.539C56.8725 118.41 61.1352 121.85 63.4532 122.623C64.0945 122.836 64.9828 122.686 65.6608 122.686C67.6412 122.686 71.1908 121.06 72.0929 119.256" stroke="#493DAF" stroke-width="2" stroke-linecap="round"/>
<path d="M53.0835 203.218C55.1727 203.218 57.4978 202.56 59.1318 201.177C60.9221 199.662 61.9809 191.505 58.2357 193.586C55.8981 194.884 57.8725 197.951 58.9077 199.534C60.5137 201.99 62.5352 204.562 65.8769 204.562C68.564 204.562 70.6667 205.796 72.7963 203.666" stroke="#493DAF" stroke-width="2" stroke-linecap="round"/>
<path d="M53.5315 439.324C57.1531 438.979 61.0066 436.25 61.9443 432.604C62.4151 430.773 61.2648 429.453 59.3557 430.463C58.3948 430.972 58.7526 434.089 59.4553 434.595C60.4286 435.296 61.1349 436.727 62.4919 436.636C66.0821 436.397 68.9166 434.096 71.9003 432.604" stroke="#493DAF" stroke-width="2" stroke-linecap="round"/>
<circle cx="37" cy="183" r="4" fill="#FF2550"/>
<path d="M28.763 131.687C28.9182 132.463 33.5023 136.746 33.3816 136.768C32.51 136.926 25.8993 137.38 26.2405 135.844C26.6006 134.224 30.0597 134.312 31.321 134.245C34.1196 134.098 31.9605 132.69 31.9605 131.048" stroke="#FFDD56" stroke-width="2" stroke-linecap="round"/>
<path d="M5.65041 1.15357L11.8941 8.94883L3.45583 10.897L5.65041 1.15357Z" fill="#FFDD56"/>
</svg>
