<svg width="263" height="520" viewBox="0 0 263 520" fill="none" xmlns="http://www.w3.org/2000/svg">
<circle cx="189.767" cy="93" r="3" transform="rotate(-180 189.767 93)" fill="#493DAF"/>
<circle cx="162.267" cy="120.5" r="2.5" transform="rotate(-180 162.267 120.5)" fill="#493DAF"/>
<rect x="166.554" y="119" width="4" height="30" rx="2" transform="rotate(-135 166.554 119)" fill="#493DAF"/>
<path d="M138.632 150.889C134.749 152.315 130.912 148.677 132.129 144.724L134.825 135.97C135.916 132.425 140.352 131.261 143.043 133.813L148.946 139.409C151.638 141.96 150.711 146.452 147.23 147.73L138.632 150.889Z" fill="#493DAF"/>
<path d="M155.415 123.541C158.027 122.168 160.844 124.995 159.461 127.602L149.665 146.072C148.718 147.856 146.315 148.214 144.889 146.783L136.18 138.043C134.755 136.612 135.122 134.21 136.91 133.27L155.415 123.541Z" fill="#493DAF"/>
<circle cx="56.1378" cy="4.22651" r="3" transform="rotate(140 56.1378 4.22651)" fill="#493DAF"/>
<circle cx="52.7484" cy="42.9694" r="2.5" transform="rotate(140 52.7484 42.9694)" fill="#493DAF"/>
<rect x="55.0684" y="39.0648" width="4" height="30" rx="2" transform="rotate(-175 55.0684 39.0648)" fill="#493DAF"/>
<path d="M54.1772 81.4403C52.1194 85.0291 46.8421 84.7088 45.2333 80.8975L41.6712 72.4588C40.2289 69.0417 42.8784 65.2988 46.5806 65.5235L54.6991 66.0162C58.4014 66.2409 60.5788 70.2767 58.7337 73.4943L54.1772 81.4403Z" fill="#493DAF"/>
<path d="M49.4546 49.7031C50.5729 46.9721 54.5482 47.3272 55.1647 50.2132L59.5321 70.6589C59.954 72.634 58.343 74.4534 56.3313 74.2737L44.0416 73.1758C42.0299 72.9961 40.7669 70.92 41.5323 69.0509L49.4546 49.7031Z" fill="#493DAF"/>
<circle cx="122.871" cy="302.785" r="3" transform="rotate(-120 122.871 302.785)" fill="#493DAF"/>
<circle cx="85.3047" cy="292.72" r="2.5" transform="rotate(-120 85.3047 292.72)" fill="#493DAF"/>
<rect x="88.7471" y="295.682" width="4" height="30" rx="2" transform="rotate(-75 88.7471 295.682)" fill="#493DAF"/>
<path d="M47.1702 287.446C43.9933 284.796 45.2251 279.655 49.2578 278.732L58.1869 276.69C61.8026 275.863 65.0285 279.122 64.1643 282.729L62.2693 290.638C61.4052 294.245 57.0526 295.689 54.2043 293.313L47.1702 287.446Z" fill="#493DAF"/>
<path d="M79.2455 288.306C81.7408 289.882 80.7007 293.735 77.7515 293.841L56.8581 294.592C54.8397 294.664 53.3277 292.762 53.854 290.812L57.0693 278.9C57.5956 276.95 59.8595 276.067 61.5673 277.145L79.2455 288.306Z" fill="#493DAF"/>
<circle cx="235.745" cy="515.782" r="3" transform="rotate(-70 235.745 515.782)" fill="#493DAF"/>
<circle cx="219.308" cy="480.535" r="2.5" transform="rotate(-70 219.308 480.535)" fill="#493DAF"/>
<rect x="219.252" y="485.076" width="4" height="30" rx="2" transform="rotate(-25 219.252 485.076)" fill="#493DAF"/>
<path d="M198.836 447.932C198.824 443.796 203.554 441.434 206.853 443.93L214.157 449.458C217.115 451.696 216.692 456.262 213.373 457.918L206.096 461.551C202.778 463.207 198.874 460.801 198.863 457.092L198.836 447.932Z" fill="#493DAF"/>
<path d="M218.794 473.056C219.191 475.981 215.571 477.661 213.594 475.47L199.589 459.947C198.236 458.447 198.722 456.066 200.554 455.216L211.746 450.022C213.578 449.172 215.71 450.338 215.981 452.34L218.794 473.056Z" fill="#493DAF"/>
</svg>
