<svg width="74" height="10" viewBox="0 0 74 10" fill="none" xmlns="http://www.w3.org/2000/svg">
<path d="M43.0056 3.61067C41.417 3.61067 38.7308 3.34811 37.4222 4.36591C36.4324 5.13578 35.3432 6.52374 33.9967 6.52374C31.5999 6.52374 28.2136 7.18864 26.0127 6.14612C24.5787 5.46686 23.7326 3.75815 22.6141 2.63965" stroke="#FFDD56" stroke-width="2" stroke-linecap="round"/>
<path d="M22.6141 2.15423C20.5964 2.03554 18.5307 1.03509 16.5722 2.15423C15.4978 2.7682 13.1219 4.43067 12.4184 5.31005C11.286 6.72556 8.10168 6.03832 6.48438 6.03832C3.85819 6.03832 3.20626 4.91383 1.25165 3.61076" stroke="#FFDD56" stroke-width="2" stroke-linecap="round"/>
<path d="M72.6218 7.4946C72.2536 4.54931 67.9798 3.125 65.5818 3.125C62.113 3.125 62.5142 5.29962 59.9985 6.63147C57.8113 7.78938 54.3616 8.83579 52.0145 7.4946C49.1974 5.88484 46.4457 3.61051 43.0056 3.61051" stroke="#FFDD56" stroke-width="2" stroke-linecap="round"/>
</svg>
