<svg width="242" height="93" viewBox="0 0 242 93" fill="none" xmlns="http://www.w3.org/2000/svg">
<path d="M3 3C4.67383 16.9486 14.2125 32.2706 20.8309 44.4568C26.7467 55.3494 34.9025 62.1566 44.9025 69.3085C53.3477 75.3484 62.0708 80.7438 71.5374 85.022C75.6689 86.8891 78.5092 87.7704 83.2946 88.1981C104.373 90.0822 125.945 88.8858 146.761 85.1334C164.863 81.8705 181.908 76.1556 198.471 68.3613C200.857 67.2384 202.059 66.792 203.82 65.408C204.785 64.6502 205.715 64.0706 206.606 63.1792" stroke="#493DAF" stroke-width="6" stroke-linecap="round"/>
<path d="M201 44.9571C204.733 44.9571 208.467 44.9571 212.2 44.9571C219.054 44.9571 231.91 42.47 237.999 45.5143C241.245 47.1371 233.268 56.9793 231.87 58.9989C227.288 65.617 223.638 76.1959 222.063 84.0735" stroke="#493DAF" stroke-width="6" stroke-linecap="round"/>
</svg>
