<svg width="335" height="651" viewBox="0 0 335 651" fill="none" xmlns="http://www.w3.org/2000/svg">
<path d="M81.1712 25.0556C81.1712 22.0484 79.5589 18.4261 77.1511 16.5687C76.5639 16.1157 73.5235 14.3051 72.7859 15.4114C71.0931 17.9507 74.3995 18.2307 76.1969 17.4012C78.4325 16.3693 77.7161 10.9535 77.4963 8.97525C77.1392 5.76122 74.7874 4.24768 73.4965 1.66602" stroke="#493DAF" stroke-width="2" stroke-linecap="round"/>
<path d="M246.725 24.6898C246.725 21.9001 246.741 19.1019 246.441 16.3248C246.384 15.7943 246.435 15.4661 246.076 15.1066C245.353 14.384 244.507 14.4189 243.518 14.4569C242.736 14.487 242.578 17.3806 244.167 17.3806C246.976 17.3806 248.253 16.754 249.974 14.1727C252.286 10.7047 254.766 5.6527 254.766 1.30029" stroke="#493DAF" stroke-width="2" stroke-linecap="round"/>
<path d="M314.225 165.83C317.966 165.83 321.944 162.715 321.944 158.699C321.944 157.382 320.075 156.004 319.308 157.539C317.872 160.41 322.135 163.85 324.453 164.623C325.095 164.836 325.983 164.686 326.661 164.686C328.641 164.686 332.191 163.06 333.093 161.256" stroke="#493DAF" stroke-width="2" stroke-linecap="round"/>
<path d="M314.083 245.218C316.173 245.218 318.498 244.56 320.132 243.177C321.922 241.662 322.981 233.505 319.236 235.586C316.898 236.884 318.873 239.951 319.908 241.534C321.514 243.99 323.535 246.562 326.877 246.562C329.564 246.562 331.667 247.796 333.796 245.666" stroke="#493DAF" stroke-width="2" stroke-linecap="round"/>
<path d="M314.531 481.324C318.153 480.979 322.007 478.25 322.944 474.604C323.415 472.773 322.265 471.453 320.356 472.463C319.395 472.972 319.753 476.089 320.455 476.595C321.429 477.296 322.135 478.727 323.492 478.636C327.082 478.397 329.917 476.096 332.9 474.604" stroke="#493DAF" stroke-width="2" stroke-linecap="round"/>
<path d="M314.642 649.07C317.398 649.07 324.794 649.587 324.794 645.245C324.794 644.232 324.888 643.331 323.772 642.972C320.971 642.071 322.504 647.287 324.3 647.766C326.982 648.481 328.236 646.02 329.799 644.382C331.281 642.83 332.072 641.511 332.725 639.552" stroke="#493DAF" stroke-width="2" stroke-linecap="round"/>
<circle cx="14" cy="88" r="4" fill="#FF2550"/>
<circle cx="298" cy="225" r="4" fill="#FF2550"/>
<path d="M17.9761 43.2295C18.296 44.8291 20.0976 45.4076 21.1736 46.427C22.8073 47.9748 21.6578 47.3858 20.2498 48.0257C15.5472 50.1633 21.1736 44.9929 21.1736 43.2295" stroke="#FFDD56" stroke-width="2" stroke-linecap="round"/>
<path d="M289.763 173.687C289.918 174.463 294.502 178.746 294.382 178.768C293.51 178.926 286.899 179.38 287.241 177.844C287.601 176.224 291.06 176.312 292.321 176.245C295.12 176.098 292.961 174.69 292.961 173.048" stroke="#FFDD56" stroke-width="2" stroke-linecap="round"/>
<path d="M33.324 228.685C34.13 229.535 37.0899 232.151 37.0899 233.445C37.0899 234.088 33.8158 233.945 33.4661 233.658C32.6432 232.985 35.9864 230.231 36.5215 229.964" stroke="#FFDD56" stroke-width="2" stroke-linecap="round"/>
<path d="M47.393 348.91C48.1872 348.91 51.4346 350.095 51.1234 351.184C50.8738 352.057 48.6331 352.676 47.8549 352.676C47.5016 352.676 47.7491 351.273 47.7483 351.255C47.6559 349.223 46.899 348.079 46.114 346.352" stroke="#FFDD56" stroke-width="2" stroke-linecap="round"/>
<path d="M266.65 43.1536L272.894 50.9488L264.456 52.897L266.65 43.1536Z" fill="#FFDD56"/>
<path d="M13.1959 177.616L8.15591 186.238L3.31315 179.059L13.1959 177.616Z" fill="#FFDD56"/>
<path d="M16 274L20.3301 276.5V281.5L16 284L11.6699 281.5V276.5L16 274Z" fill="#FF2550"/>
</svg>
