<svg width="19" height="19" viewBox="0 0 19 19" fill="none" xmlns="http://www.w3.org/2000/svg">
<path fill-rule="evenodd" clip-rule="evenodd" d="M6.44757 3.3125L14.8851 3.3125C15.0343 3.3125 15.1773 3.37176 15.2828 3.47725C15.3883 3.58274 15.4476 3.72582 15.4476 3.875V12.3125C15.4476 12.6232 15.1957 12.875 14.8851 12.875C14.5744 12.875 14.3226 12.6232 14.3226 12.3125V5.233L4.03282 15.5227C3.81315 15.7424 3.45699 15.7424 3.23732 15.5227C3.01765 15.3031 3.01765 14.9469 3.23732 14.7273L13.5271 4.4375L6.44757 4.4375C6.13691 4.4375 5.88507 4.18566 5.88507 3.875C5.88507 3.56434 6.13691 3.3125 6.44757 3.3125Z" fill="#493DAF"/>
</svg>
