<svg width="57" height="68" viewBox="0 0 57 68" fill="none" xmlns="http://www.w3.org/2000/svg">
<ellipse cx="1.40724" cy="1.31435" rx="1.40724" ry="1.31435" transform="matrix(0.857129 0.515102 -0.485049 0.874487 1.27502 26.0527)" fill="white"/>
<ellipse cx="1.1727" cy="1.09529" rx="1.1727" ry="1.09529" transform="matrix(0.857129 0.515102 -0.485049 0.874487 18.2705 22.4736)" fill="white"/>
<rect width="1.81545" height="13.6158" rx="0.907723" transform="matrix(0.29532 0.973348 -0.957485 0.22046 16.702 23.5742)" fill="white"/>
<path d="M33.2555 17.799C35.719 18.3167 36.7324 21.3726 34.9755 22.9854L33.9081 23.9652C32.329 25.4147 29.6378 24.5921 28.9247 22.442L28.4955 21.1476C27.7824 18.9974 29.5448 17.0192 31.7589 17.4845L33.2555 17.799Z" fill="white"/>
<path d="M24.2176 24.6882C22.2464 24.5339 21.4651 21.9424 23.0955 20.9661L28.5286 17.7125C29.6443 17.0444 31.1754 17.696 31.5707 19.0073L32.7065 22.7748C33.1018 24.086 32.1355 25.3077 30.7866 25.2021L24.2176 24.6882Z" fill="white"/>
<ellipse cx="1.40724" cy="1.31435" rx="1.40724" ry="1.31435" transform="matrix(0.857129 0.515102 -0.485049 0.874487 6.16736 37.6929)" fill="white"/>
<ellipse cx="1.1727" cy="1.09529" rx="1.1727" ry="1.09529" transform="matrix(0.857129 0.515102 -0.485049 0.874487 23.1628 34.1138)" fill="white"/>
<rect width="1.81545" height="13.6158" rx="0.907723" transform="matrix(0.29532 0.973348 -0.957485 0.22046 21.5944 35.2144)" fill="white"/>
<path d="M38.1479 29.4391C40.6113 29.9568 41.6247 33.0127 39.8678 34.6255L38.8004 35.6053C37.2214 37.0549 34.5301 36.2323 33.8171 34.0821L33.3878 32.7877C32.6747 30.6376 34.4371 28.6593 36.6512 29.1246L38.1479 29.4391Z" fill="white"/>
<path d="M29.1099 36.3283C27.1387 36.1741 26.3574 33.5825 27.9878 32.6062L33.4209 29.3526C34.5366 28.6845 36.0677 29.3361 36.463 30.6474L37.5988 34.4149C37.9941 35.7262 37.0279 36.9478 35.6789 36.8423L29.1099 36.3283Z" fill="white"/>
<ellipse cx="1.40724" cy="1.31435" rx="1.40724" ry="1.31435" transform="matrix(0.857129 0.515102 -0.485049 0.874487 12.4576 47.8774)" fill="white"/>
<ellipse cx="1.1727" cy="1.09529" rx="1.1727" ry="1.09529" transform="matrix(0.857129 0.515102 -0.485049 0.874487 29.4531 44.2983)" fill="white"/>
<rect width="1.81545" height="13.6158" rx="0.907723" transform="matrix(0.29532 0.973348 -0.957485 0.22046 27.8846 45.3989)" fill="white"/>
<path d="M44.4381 39.6237C46.9016 40.1414 47.915 43.1973 46.1581 44.8101L45.0907 45.7899C43.5116 47.2395 40.8204 46.4169 40.1074 44.2667L39.6781 42.9723C38.965 40.8221 40.7274 38.8439 42.9415 39.3092L44.4381 39.6237Z" fill="white"/>
<path d="M35.4002 46.5129C33.429 46.3586 32.6477 43.7671 34.2781 42.7908L39.7112 39.5372C40.8269 38.8691 42.358 39.5207 42.7533 40.832L43.8891 44.5995C44.2844 45.9107 43.3181 47.1324 41.9692 47.0269L35.4002 46.5129Z" fill="white"/>
</svg>
