<svg width="185" height="27" viewBox="0 0 185 27" fill="none" xmlns="http://www.w3.org/2000/svg">
<path d="M10.1712 25.0556C10.1712 22.0484 8.55887 18.4261 6.15115 16.5687C5.56387 16.1157 2.52349 14.3051 1.78591 15.4114C0.0930989 17.9507 3.3995 18.2307 5.19689 17.4012C7.43252 16.3693 6.71612 10.9535 6.49631 8.97525C6.13919 5.76122 3.78736 4.24768 2.49653 1.66602" stroke="#493DAF" stroke-width="2" stroke-linecap="round"/>
<path d="M175.725 24.6898C175.725 21.9001 175.741 19.1019 175.441 16.3248C175.384 15.7943 175.435 15.4661 175.076 15.1066C174.353 14.384 173.507 14.4189 172.518 14.4569C171.736 14.487 171.578 17.3806 173.167 17.3806C175.976 17.3806 177.253 16.754 178.974 14.1727C181.286 10.7047 183.766 5.6527 183.766 1.30029" stroke="#493DAF" stroke-width="2" stroke-linecap="round"/>
</svg>
